<svg xmlns="http://www.w3.org/2000/svg" xmlns:xlink="http://www.w3.org/1999/xlink" version="1.1" id="Layer_1" x="0" y="0" viewBox="0 0 55 50" xml:space="preserve" enable-background="new 0 0 55 50">
  <style type="text/css">
    
	.st0{fill:#536DFE;}

  </style>
  <path class="st0" d="M22.7 23.3c0 0 4.7-0.4 4.7-5.9s-3.8-8.2-8.7-8.2h-9H9.5 2.7v30.8h6.8 0.3 9c0 0 9.8 0.3 9.8-9.1C28.5 31 28.9 23.3 22.7 23.3zM9.7 14.7h7.8 1.2c0 0 2.2 0 2.2 3.2 0 3.2-1.3 3.7-2.7 3.7H9.7V14.7zM18.2 34.6c-0.2 0-0.4 0-0.6 0H9.7v-8.2h9c0 0 3.2 0 3.2 4.2C21.9 34.2 19.5 34.6 18.2 34.6z"/>
  <path class="st0" d="M41.5 17.1c-11.8 0-11.8 11.8-11.8 11.8s-0.8 11.8 11.8 11.8c0 0 10.5 0.6 10.5-8.2h-5.4c0 0 0.2 3.3-4.9 3.3 0 0-5.4 0.4-5.4-5.4h16C52.3 30.5 54 17.1 41.5 17.1zM36.2 26.4c0 0 0.7-4.8 5.4-4.8 4.8 0 4.7 4.8 4.7 4.8H36.2z"/>
  <rect x="34.9" y="11.1" class="st0" width="12.7" height="3.8"/>
</svg>
