<svg xmlns="http://www.w3.org/2000/svg" xmlns:xlink="http://www.w3.org/1999/xlink" version="1.1" id="Layer_1" x="0" y="0" viewBox="0 0 55 50" xml:space="preserve" enable-background="new 0 0 55 50"><style type="text/css">
	.st0{fill:#536DFE;stroke:#FFFFFF;stroke-miterlimit:10;}
</style><path class="st0" d="M27.5 0.8C13.8 0.8 2.7 11.9 2.7 25.6c0 11 7.1 20.2 17 23.5 1.2 0.2 1.7-0.5 1.7-1.2 0-0.6 0-2.5 0-4.6 -6.9 1.5-8.4-2.9-8.4-2.9 -1.1-2.9-2.8-3.6-2.8-3.6 -2.2-1.5 0.2-1.5 0.2-1.5 2.5 0.2 3.8 2.6 3.8 2.6 2.2 3.8 5.8 2.7 7.2 2.1 0.2-1.6 0.9-2.7 1.6-3.3 -5.5-0.6-11.3-2.8-11.3-12.3 0-2.7 1-4.9 2.6-6.7 -0.3-0.6-1.1-3.1 0.2-6.6 0 0 2.1-0.7 6.8 2.5 2-0.5 4.1-0.8 6.2-0.8 2.1 0 4.2 0.3 6.2 0.8 4.7-3.2 6.8-2.5 6.8-2.5 1.3 3.4 0.5 5.9 0.2 6.6 1.6 1.7 2.6 3.9 2.6 6.7 0 9.5-5.8 11.6-11.3 12.2 0.9 0.8 1.7 2.3 1.7 4.6 0 3.3 0 6 0 6.8 0 0.7 0.4 1.4 1.7 1.2 9.8-3.3 16.9-12.6 16.9-23.5C52.3 11.9 41.2 0.8 27.5 0.8z"/><path class="st0" d="M12.1 36.4c-0.1 0.1-0.2 0.2-0.4 0.1 -0.2-0.1-0.3-0.2-0.2-0.4 0.1-0.1 0.2-0.2 0.4-0.1C12.1 36.1 12.2 36.3 12.1 36.4L12.1 36.4z"/><path class="st0" d="M13.1 37.5c-0.1 0.1-0.3 0.1-0.5-0.1 -0.2-0.2-0.2-0.4-0.1-0.5 0.1-0.1 0.3-0.1 0.5 0.1C13.2 37.2 13.2 37.4 13.1 37.5L13.1 37.5z"/><path class="st0" d="M14.1 39c-0.2 0.1-0.4 0-0.6-0.2 -0.2-0.2-0.2-0.5 0-0.6 0.2-0.1 0.4 0 0.6 0.2C14.2 38.6 14.2 38.9 14.1 39L14.1 39z"/><path class="st0" d="M15.4 40.3c-0.1 0.1-0.4 0.1-0.6-0.1 -0.2-0.2-0.3-0.5-0.1-0.6 0.1-0.2 0.4-0.1 0.6 0.1C15.5 39.9 15.6 40.2 15.4 40.3L15.4 40.3z"/><path class="st0" d="M17.3 41.1c-0.1 0.2-0.3 0.3-0.6 0.2 -0.3-0.1-0.5-0.3-0.4-0.5 0.1-0.2 0.3-0.3 0.6-0.2C17.1 40.7 17.3 40.9 17.3 41.1L17.3 41.1z"/><path class="st0" d="M19.3 41.3c0 0.2-0.2 0.4-0.5 0.4 -0.3 0-0.5-0.2-0.5-0.4 0-0.2 0.2-0.4 0.5-0.4C19.1 40.9 19.3 41.1 19.3 41.3L19.3 41.3z"/><path class="st0" d="M21.2 41c0 0.2-0.2 0.4-0.5 0.5 -0.3 0.1-0.6-0.1-0.6-0.3 0-0.2 0.2-0.4 0.5-0.5C20.9 40.6 21.1 40.8 21.2 41L21.2 41z"/></svg>