<svg xmlns="http://www.w3.org/2000/svg" xmlns:xlink="http://www.w3.org/1999/xlink" version="1.1" id="Layer_1" x="0" y="0" viewBox="0 0 55 50" xml:space="preserve" enable-background="new 0 0 55 50">
  <style type="text/css">
    
	.st0{fill:#536DFE;}

  </style>
  <path class="st0" d="M29.3 22.7L29.3 22.7C29.3 22.6 29.3 22.6 29.3 22.7L29.3 22.7z"/>
  <path class="st0" d="M47.8 1H7.2C5.2 1 3.7 2.5 3.7 4.4v41.1c0 1.9 1.6 3.4 3.5 3.4h40.6c1.9 0 3.5-1.5 3.5-3.4V4.4C51.3 2.5 49.8 1 47.8 1zM18.1 41.2h-7.2V19.5h7.2V41.2zM14.5 16.5L14.5 16.5c-2.5 0-4-1.7-4-3.7 0-2.1 1.6-3.7 4.1-3.7 2.5 0 4 1.6 4 3.7C18.6 14.9 17 16.5 14.5 16.5zM44.1 41.2h-7.2V29.6c0-2.9-1-4.9-3.6-4.9 -2 0-3.2 1.3-3.7 2.6 -0.2 0.5-0.2 1.1-0.2 1.8v12.1h-7.2c0 0 0.1-19.6 0-21.7h7.2v3.1c1-1.5 2.7-3.6 6.5-3.6 4.7 0 8.3 3.1 8.3 9.8V41.2z"/>
</svg>
