<?xml version="1.0" encoding="utf-8"?>
<!-- Generator: Adobe Illustrator 21.1.0, SVG Export Plug-In . SVG Version: 6.00 Build 0)  -->
<svg version="1.1" id="Layer_1" xmlns="http://www.w3.org/2000/svg" xmlns:xlink="http://www.w3.org/1999/xlink" x="0px" y="0px"
	 viewBox="0 0 100 100" style="enable-background:new 0 0 100 100;" xml:space="preserve">
<style type="text/css">
	.st0{fill:#536DFE;}
</style>
<g>
	<g>
		<path class="st0" d="M38,32.4c0.7-0.1,1.7-0.2,3.1-0.2c1.4,0,2.4,0.3,3.1,0.8c0.6,0.5,1.1,1.3,1.1,2.3s-0.3,1.8-0.9,2.4
			c-0.8,0.7-1.9,1.1-3.3,1.1c-0.3,0-0.6,0-0.8,0v3.6H38V32.4z M40.3,37c0.2,0,0.4,0.1,0.8,0.1c1.2,0,2-0.6,2-1.6
			c0-0.9-0.6-1.5-1.8-1.5c-0.5,0-0.8,0-0.9,0.1L40.3,37L40.3,37z"/>
		<path class="st0" d="M46.7,32.4c0.8-0.1,1.9-0.2,3.1-0.2c1.9,0,3.2,0.3,4.1,1.1c1,0.8,1.7,2,1.7,3.8c0,1.9-0.7,3.3-1.7,4.1
			c-1.1,0.9-2.7,1.3-4.7,1.3c-1.2,0-2-0.1-2.6-0.1v-10H46.7z M49,40.6c0.2,0,0.5,0,0.8,0c2.1,0,3.4-1.1,3.4-3.5
			c0-2.1-1.2-3.2-3.2-3.2c-0.5,0-0.8,0-1,0.1V40.6z"/>
		<path class="st0" d="M57.1,32.2h6.2v1.9h-3.9v2.3H63v1.9h-3.6v4.1h-2.3V32.2z"/>
	</g>
	<g>
		<path class="st0" d="M88.9,25.9L67.4,4.4c-1-1-2.3-1.5-3.7-1.5H16.5c-3.3,0-6,2.7-6,6v82c0,3.3,2.7,6,6,6h68c3.3,0,6-2.7,6-6v-61
			C90.5,28.4,89.9,26.9,88.9,25.9z M50.5,83.3L39,71.8h5.9V53.2h11.3v18.6h5.9L50.5,83.3z M77.4,44.7c0,1.2-1,2.1-2.1,2.1H25.8
			c-1.2,0-2.1-1-2.1-2.1V31.2c0-1.2,1-2.1,2.1-2.1h49.5c1.2,0,2.1,1,2.1,2.1V44.7z"/>
	</g>
</g>
</svg>
